<?xml version="1.0" encoding="UTF-8"?>
<svg id="Layer_2" data-name="Layer 2" xmlns="http://www.w3.org/2000/svg" viewBox="0 0 415.57 36">
  <defs>
    <style>
      .cls-1 {
        fill: #fafbfb;
      }
    </style>
  </defs>
  <g id="Layer_1-2" data-name="Layer 1">
    <g>
      <g>
        <path class="cls-1" d="M0,3.92v11.1c0,2.16,1.76,3.92,3.92,3.92h10.8c1.3,0,2.35,1.05,2.35,2.35v10.8c0,2.16,1.76,3.92,3.92,3.92h11.1c2.16,0,3.92-1.76,3.92-3.92V3.92C36,1.76,34.24,0,32.08,0H3.92C1.76,0,0,1.76,0,3.92ZM3.92,16.96c-1.13,0-2.05-.92-2.05-2.05V3.81c0-1.13.92-2.05,2.05-2.05h11.1c1.13,0,2.05.92,2.05,2.05v11.1c0,1.13-.92,2.05-2.05,2.05H3.92ZM21.13,34.16c-1.13,0-2.05-.92-2.05-2.05v-11.1c0-1.13.92-2.05,2.05-2.05h11.1c1.13,0,2.05.92,2.05,2.05v11.1c0,1.13-.92,2.05-2.05,2.05h-11.1Z"/>
        <path class="cls-1" d="M13.15,20.8c1.13,0,2.05.92,2.05,2.05v11.1c0,1.13-.92,2.05-2.05,2.05H2.05C.92,36,0,35.08,0,33.95v-11.1c0-1.13.92-2.05,2.05-2.05h11.1Z"/>
      </g>
      <g>
        <path class="cls-1" d="M69.32,36c-2.96,0-5.58-.75-7.88-2.24s-4.1-3.57-5.41-6.23c-1.31-2.66-1.96-5.71-1.96-9.15s.68-6.56,2.05-9.21,3.25-4.71,5.66-6.19c2.41-1.48,5.18-2.22,8.3-2.22,2.51,0,4.75.47,6.72,1.42,1.97.94,3.59,2.28,4.86,3.99,1.27,1.72,2.07,3.75,2.41,6.09h-5.96c-.28-1.92-1.14-3.45-2.58-4.61-1.44-1.15-3.25-1.73-5.45-1.73-2.06,0-3.85.52-5.39,1.56-1.54,1.04-2.73,2.5-3.59,4.37-.86,1.87-1.29,4.06-1.29,6.57s.44,4.71,1.31,6.61,2.08,3.39,3.61,4.48c1.53,1.08,3.32,1.63,5.35,1.63,1.61,0,3.04-.3,4.31-.91,1.27-.61,2.27-1.44,3-2.49.73-1.06,1.1-2.23,1.1-3.53v-1.77h-9v-4.65h10.06c1.49,0,2.62.39,3.38,1.16s1.14,1.89,1.14,3.36v13.18h-5.28v-4.52h-.17c-.7,1.52-1.87,2.74-3.49,3.65-1.62.91-3.56,1.37-5.81,1.37Z"/>
        <path class="cls-1" d="M99.86,36c-2.37,0-4.46-.54-6.27-1.63-1.82-1.08-3.25-2.62-4.29-4.6-1.04-1.99-1.56-4.33-1.56-7.03s.51-4.99,1.52-6.95c1.01-1.96,2.42-3.47,4.2-4.54,1.79-1.07,3.84-1.61,6.15-1.61,2.14,0,4.06.49,5.77,1.46s3.05,2.37,4.04,4.2c.99,1.83,1.48,4.03,1.48,6.59v2.2h-17.75c.2,2.25.89,4.02,2.09,5.3s2.73,1.92,4.59,1.92c1.35,0,2.5-.33,3.44-.99.94-.66,1.57-1.57,1.88-2.73h5.7c-.34,1.75-1.03,3.25-2.07,4.5-1.04,1.25-2.32,2.22-3.84,2.89-1.52.68-3.21,1.02-5.07,1.02ZM93.31,20.07h12.17c-.23-1.86-.87-3.29-1.92-4.29-1.06-1-2.37-1.5-3.95-1.5s-2.96.51-4.08,1.52-1.85,2.44-2.22,4.27Z"/>
        <path class="cls-1" d="M114.77,35.49V10.14h5.45v3.93h.17c.73-1.41,1.75-2.49,3.06-3.25,1.31-.76,2.84-1.14,4.58-1.14,1.86,0,3.49.44,4.88,1.33,1.4.89,2.49,2.12,3.28,3.7.79,1.58,1.18,3.4,1.18,5.45v15.34h-5.58v-14.32c0-2-.5-3.57-1.5-4.71s-2.4-1.71-4.2-1.71-3.21.57-4.22,1.71c-1.02,1.14-1.52,2.71-1.52,4.71v14.32h-5.58Z"/>
        <path class="cls-1" d="M153.21,36c-2.37,0-4.46-.54-6.27-1.63-1.82-1.08-3.25-2.62-4.29-4.6-1.04-1.99-1.56-4.33-1.56-7.03s.51-4.99,1.52-6.95c1.01-1.96,2.42-3.47,4.2-4.54,1.79-1.07,3.84-1.61,6.15-1.61,2.14,0,4.06.49,5.77,1.46s3.05,2.37,4.04,4.2c.99,1.83,1.48,4.03,1.48,6.59v2.2h-17.75c.2,2.25.89,4.02,2.09,5.3s2.73,1.92,4.59,1.92c1.35,0,2.5-.33,3.44-.99.94-.66,1.57-1.57,1.88-2.73h5.7c-.34,1.75-1.03,3.25-2.07,4.5-1.04,1.25-2.32,2.22-3.84,2.89-1.52.68-3.21,1.02-5.07,1.02ZM146.66,20.07h12.17c-.23-1.86-.87-3.29-1.92-4.29-1.06-1-2.37-1.5-3.95-1.5s-2.96.51-4.08,1.52-1.85,2.44-2.22,4.27Z"/>
        <path class="cls-1" d="M168.54,35.49V10.14h5.36v4.69h.17c.56-1.49,1.45-2.69,2.66-3.59,1.21-.9,2.68-1.35,4.39-1.35h1.99v4.94h-2.24c-2.25,0-3.94.69-5.07,2.07-1.13,1.38-1.69,3.23-1.69,5.54v13.06h-5.58Z"/>
        <path class="cls-1" d="M192.02,35.96c-2.54,0-4.59-.72-6.17-2.15-1.58-1.44-2.37-3.31-2.37-5.62s.81-4.3,2.43-5.64c1.62-1.34,3.91-2.01,6.87-2.01h6.8v-1.18c0-1.61-.44-2.85-1.33-3.74s-2.12-1.33-3.7-1.33c-1.32,0-2.42.3-3.3.91-.87.61-1.44,1.47-1.69,2.6h-5.66c.45-2.56,1.63-4.56,3.53-6,1.9-1.44,4.29-2.16,7.16-2.16,3.24,0,5.77.85,7.58,2.56,1.82,1.71,2.72,4.12,2.72,7.25v16.06h-5.2v-4.01h-.17c-.68,1.41-1.68,2.51-3,3.3-1.32.79-2.83,1.18-4.52,1.18ZM193.2,31.48c1.21,0,2.3-.27,3.25-.82.96-.55,1.72-1.3,2.28-2.24.56-.94.84-2.01.84-3.19v-.72h-6.46c-1.41,0-2.49.3-3.23.91-.75.61-1.12,1.44-1.12,2.51s.4,1.96,1.2,2.6c.8.63,1.88.95,3.23.95Z"/>
        <path class="cls-1" d="M210.09,35.49V0h5.58v35.49h-5.58Z"/>
        <path class="cls-1" d="M232.3,35.49V1.27h15.17c2.11,0,3.97.37,5.58,1.1,1.61.73,2.86,1.8,3.76,3.19.9,1.39,1.35,3.08,1.35,5.05,0,1.61-.35,3.05-1.06,4.33-.7,1.28-1.85,2.28-3.42,2.98v.17c1.46,0,2.58.39,3.34,1.16.76.77,1.14,1.89,1.14,3.36v12.89h-5.66v-13.56h-14.49v13.56h-5.7ZM238.01,16.94h9c1.66,0,3-.46,4.01-1.39s1.52-2.24,1.52-3.93-.51-3.04-1.52-3.95c-1.01-.91-2.35-1.37-4.01-1.37h-9v10.65Z"/>
        <path class="cls-1" d="M274.46,36c-2.34,0-4.43-.54-6.27-1.63-1.85-1.08-3.3-2.61-4.35-4.58-1.06-1.97-1.58-4.3-1.58-6.97s.53-5.04,1.58-7.01c1.06-1.97,2.51-3.49,4.35-4.56,1.84-1.07,3.94-1.61,6.27-1.61s4.51.54,6.34,1.61c1.83,1.07,3.27,2.59,4.31,4.56s1.56,4.31,1.56,7.01-.52,5.01-1.56,6.99-2.49,3.51-4.33,4.59-3.95,1.61-6.32,1.61ZM274.46,31.01c2.03,0,3.64-.75,4.84-2.24,1.2-1.49,1.79-3.48,1.79-5.96s-.6-4.5-1.79-5.98c-1.2-1.48-2.81-2.22-4.84-2.22s-3.57.74-4.8,2.22-1.84,3.47-1.84,5.98.61,4.47,1.84,5.96,2.82,2.24,4.8,2.24Z"/>
        <path class="cls-1" d="M303.69,36c-3.55,0-6.06-1.48-7.52-4.44h-.17v3.93h-5.45V0h5.58v13.94h.17c1.41-2.87,3.87-4.31,7.4-4.31,2.11,0,3.96.55,5.53,1.65,1.58,1.1,2.8,2.63,3.68,4.6.87,1.97,1.31,4.28,1.31,6.93s-.44,4.92-1.31,6.91c-.87,1.99-2.1,3.53-3.68,4.63-1.58,1.1-3.42,1.65-5.53,1.65ZM302.17,31.06c2,0,3.58-.75,4.73-2.24,1.15-1.49,1.73-3.49,1.73-6s-.58-4.51-1.73-6c-1.16-1.49-2.73-2.24-4.73-2.24-1.89,0-3.37.61-4.44,1.84-1.07,1.23-1.61,2.85-1.61,4.88v3.04c0,2.03.53,3.65,1.61,4.88,1.07,1.23,2.55,1.84,4.44,1.84Z"/>
        <path class="cls-1" d="M328.91,36c-2.34,0-4.43-.54-6.27-1.63-1.85-1.08-3.3-2.61-4.35-4.58-1.06-1.97-1.58-4.3-1.58-6.97s.53-5.04,1.58-7.01c1.06-1.97,2.51-3.49,4.35-4.56,1.84-1.07,3.94-1.61,6.27-1.61s4.51.54,6.34,1.61c1.83,1.07,3.27,2.59,4.31,4.56s1.56,4.31,1.56,7.01-.52,5.01-1.56,6.99-2.49,3.51-4.33,4.59-3.95,1.61-6.32,1.61ZM328.91,31.01c2.03,0,3.64-.75,4.84-2.24,1.2-1.49,1.79-3.48,1.79-5.96s-.6-4.5-1.79-5.98c-1.2-1.48-2.81-2.22-4.84-2.22s-3.57.74-4.8,2.22-1.84,3.47-1.84,5.98.61,4.47,1.84,5.96,2.82,2.24,4.8,2.24Z"/>
        <path class="cls-1" d="M351.12,35.49c-1.49,0-2.66-.39-3.51-1.18-.84-.79-1.27-1.99-1.27-3.59V14.62h-4.14v-4.48h4.18V2.54h5.49v7.61h5.66v4.48h-5.62v16.39h6.17v4.48h-6.97Z"/>
        <path class="cls-1" d="M363.75,7.1c-.9,0-1.68-.32-2.32-.95-.65-.63-.97-1.41-.97-2.34s.32-1.68.95-2.32c.63-.65,1.41-.97,2.34-.97s1.68.32,2.32.95c.65.63.97,1.41.97,2.34s-.32,1.68-.95,2.32c-.63.65-1.42.97-2.35.97ZM360.96,35.49V10.14h5.58v25.35h-5.58Z"/>
        <path class="cls-1" d="M382.54,36c-2.31,0-4.37-.54-6.19-1.63-1.82-1.08-3.25-2.61-4.29-4.58-1.04-1.97-1.56-4.3-1.56-6.97s.52-5.04,1.56-7.01c1.04-1.97,2.47-3.49,4.29-4.56,1.82-1.07,3.88-1.61,6.19-1.61,1.86,0,3.56.35,5.11,1.04,1.55.69,2.85,1.71,3.91,3.06,1.06,1.35,1.77,3.04,2.13,5.07h-5.75c-.39-1.41-1.07-2.46-2.03-3.15-.96-.69-2.08-1.03-3.38-1.03-1.92,0-3.47.74-4.67,2.22s-1.8,3.47-1.8,5.98.6,4.47,1.8,5.96,2.75,2.24,4.67,2.24c1.38,0,2.57-.37,3.57-1.1,1-.73,1.68-1.9,2.05-3.51h5.62c-.34,2.14-1.03,3.92-2.09,5.32-1.06,1.41-2.37,2.47-3.93,3.19s-3.3,1.08-5.22,1.08Z"/>
        <path class="cls-1" d="M405.77,36c-3.13,0-5.67-.77-7.63-2.32-1.96-1.55-3.02-3.63-3.19-6.25h5.41c.2,1.32.78,2.34,1.75,3.04.97.7,2.26,1.06,3.87,1.06,1.44,0,2.53-.27,3.28-.82.75-.55,1.12-1.35,1.12-2.39,0-1.55-1.07-2.55-3.21-3l-4.44-.97c-4.65-.99-6.97-3.28-6.97-6.89,0-2.34.88-4.22,2.64-5.66,1.76-1.44,4.06-2.16,6.91-2.16s5.18.74,7.01,2.22c1.83,1.48,2.83,3.46,3,5.94h-5.37c-.25-1.21-.8-2.15-1.65-2.81-.85-.66-1.94-.99-3.3-.99-1.21,0-2.18.26-2.92.78-.73.52-1.1,1.25-1.1,2.17,0,.73.25,1.32.74,1.75.49.44,1.26.77,2.3.99l4.56.97c2.31.51,4.05,1.35,5.22,2.51,1.17,1.17,1.75,2.74,1.75,4.71,0,2.48-.87,4.45-2.62,5.92s-4.14,2.2-7.18,2.2Z"/>
      </g>
    </g>
  </g>
</svg>